<svg
    xmlns="http://www.w3.org/2000/svg"
    width="12"
    height="9"
    viewBox="0 0 12 9"
    fill="none"
>
    <path
        d="M10.0408 1.14131C10.2766 0.964455 10.5683 0.878596 10.8623 0.89949C11.1563 0.920385 11.4329 1.04663 11.6414 1.25505C11.8498 1.46348 11.976 1.74008 11.9969 2.0341C12.0178 2.32811 11.932 2.61979 11.7551 2.85559L6.85714 7.75355C6.62825 7.97791 6.32051 8.10358 6 8.10358C5.67949 8.10358 5.37175 7.97791 5.14286 7.75355L0.2449 2.85559C0.068048 2.61979 -0.0178126 2.32811 0.00308217 2.0341C0.0239769 1.74008 0.150225 1.46348 0.358647 1.25505C0.567068 1.04663 0.843677 0.920385 1.13769 0.89949C1.4317 0.878596 1.72338 0.964455 1.95918 1.14131L6 5.16988L10.0408 1.12906V1.14131Z"
        fill="#11103C"
    />
</svg>