<svg width="23" height="24" viewBox="0 0 23 24" fill="none" xmlns="http://www.w3.org/2000/svg">
<path fill-rule="evenodd" clip-rule="evenodd" d="M5.33935 18.5037C4.91335 17.9758 4.39585 16.8964 3.47485 15.5861C2.95285 14.8449 1.65835 13.4493 1.27285 12.7405C0.938345 12.114 0.974345 11.8331 1.05385 11.314C1.19485 10.3905 2.16085 9.67137 3.19135 9.76843C3.96985 9.84049 4.62985 10.3449 5.22385 10.8214C5.58235 11.1081 6.02335 11.6655 6.28885 11.9802C6.53335 12.2684 6.59334 12.3875 6.85434 12.7287C7.19934 13.1802 7.30735 13.4037 7.17535 12.9067C7.06885 12.1773 6.89485 10.9317 6.64285 9.83019C6.45085 8.9949 6.40435 8.86402 6.22135 8.22284C6.02785 7.54049 5.92885 7.06255 5.74735 6.33902C5.62135 5.82725 5.39485 4.78166 5.33335 4.19343C5.24785 3.38902 5.20285 2.07725 5.72935 1.47431C6.14185 1.00225 7.08835 0.859606 7.67485 1.15078C8.44285 1.53166 8.87935 2.62578 9.07885 3.06255C9.43735 3.84784 9.65935 4.75519 9.85285 5.94637C10.0988 7.46255 10.5518 9.56696 10.5668 10.0096C10.6028 9.46696 10.4648 8.32431 10.5608 7.80372C10.6478 7.33166 11.0528 6.78313 11.5598 6.63461C11.9888 6.50961 12.4913 6.46402 12.9338 6.55372C13.4033 6.64784 13.8983 6.97725 14.0828 7.28755C14.6258 8.20519 14.6363 10.0802 14.6588 9.98019C14.7878 9.42725 14.7653 8.17284 15.0848 7.65078C15.2948 7.30666 15.8303 6.99637 16.1153 6.94637C16.5563 6.8699 17.0978 6.84637 17.5613 6.93461C17.9348 7.00666 18.4403 7.44196 18.5768 7.65078C18.9038 8.15666 19.0898 9.58755 19.1453 10.089C19.1678 10.2964 19.2563 9.51255 19.5848 9.00666C20.1938 8.06696 22.3493 7.88461 22.4318 9.94637C22.4693 10.9081 22.4618 10.864 22.4618 11.5111C22.4618 12.2714 22.4438 12.7287 22.4018 13.2787C22.3553 13.867 22.2263 15.1964 22.0388 15.8405C21.9098 16.2831 21.4823 17.2787 21.0608 17.8758C21.0608 17.8758 19.4498 19.714 19.2743 20.542C19.0973 21.3684 19.1558 21.3743 19.1213 21.9611C19.0868 22.5464 19.3028 23.317 19.3028 23.317C19.3028 23.317 18.0998 23.4699 17.4518 23.3684C16.8653 23.2758 16.1393 22.1317 15.9518 21.7817C15.6938 21.2993 15.1433 21.392 14.9288 21.7478C14.5913 22.3111 13.8653 23.3214 13.3523 23.3846C12.3503 23.5081 10.2713 23.4302 8.64385 23.414C8.64385 23.414 8.92135 21.9273 8.30335 21.417C7.84585 21.0361 7.05835 20.264 6.58735 19.8581L5.33935 18.5037Z" fill="white"/>
<path fill-rule="evenodd" clip-rule="evenodd" d="M5.33935 18.5037C4.91335 17.9758 4.39585 16.8964 3.47485 15.5861C2.95285 14.8449 1.65835 13.4493 1.27285 12.7405C0.938345 12.114 0.974345 11.8331 1.05385 11.314C1.19485 10.3905 2.16085 9.67137 3.19135 9.76843C3.96985 9.84049 4.62985 10.3449 5.22385 10.8214C5.58235 11.1081 6.02335 11.6655 6.28885 11.9802C6.53335 12.2684 6.59334 12.3875 6.85434 12.7287C7.19934 13.1802 7.30735 13.4037 7.17535 12.9067C7.06885 12.1773 6.89485 10.9317 6.64285 9.83019C6.45085 8.9949 6.40435 8.86402 6.22135 8.22284C6.02785 7.54049 5.92885 7.06255 5.74735 6.33902C5.62135 5.82725 5.39485 4.78166 5.33335 4.19343C5.24785 3.38902 5.20285 2.07725 5.72935 1.47431C6.14185 1.00225 7.08835 0.859606 7.67485 1.15078C8.44285 1.53166 8.87935 2.62578 9.07885 3.06255C9.43735 3.84784 9.65935 4.75519 9.85285 5.94637C10.0988 7.46255 10.5518 9.56696 10.5668 10.0096C10.6028 9.46696 10.4648 8.32431 10.5608 7.80372C10.6478 7.33166 11.0528 6.78313 11.5598 6.63461C11.9888 6.50961 12.4913 6.46402 12.9338 6.55372C13.4033 6.64784 13.8983 6.97725 14.0828 7.28755C14.6258 8.20519 14.6363 10.0802 14.6588 9.98019C14.7878 9.42725 14.7653 8.17284 15.0848 7.65078C15.2948 7.30666 15.8303 6.99637 16.1153 6.94637C16.5563 6.8699 17.0978 6.84637 17.5613 6.93461C17.9348 7.00666 18.4403 7.44196 18.5768 7.65078C18.9038 8.15666 19.0898 9.58755 19.1453 10.089C19.1678 10.2964 19.2563 9.51255 19.5848 9.00666C20.1938 8.06696 22.3493 7.88461 22.4318 9.94637C22.4693 10.9081 22.4618 10.864 22.4618 11.5111C22.4618 12.2714 22.4438 12.7287 22.4018 13.2787C22.3553 13.867 22.2263 15.1964 22.0388 15.8405C21.9098 16.2831 21.4823 17.2787 21.0608 17.8758C21.0608 17.8758 19.4498 19.714 19.2743 20.542C19.0973 21.3684 19.1558 21.3743 19.1213 21.9611C19.0868 22.5464 19.3028 23.317 19.3028 23.317C19.3028 23.317 18.0998 23.4699 17.4518 23.3684C16.8653 23.2758 16.1393 22.1317 15.9518 21.7817C15.6938 21.2993 15.1433 21.392 14.9288 21.7478C14.5913 22.3111 13.8653 23.3214 13.3523 23.3846C12.3503 23.5081 10.2713 23.4302 8.64385 23.414C8.64385 23.414 8.92135 21.9273 8.30335 21.417C7.84585 21.0361 7.05835 20.264 6.58735 19.8581L5.33935 18.5037Z" stroke="black" stroke-width="0.75" stroke-linecap="round" stroke-linejoin="round"/>
<path d="M17.6917 19.025V13.9383" stroke="black" stroke-width="0.75" stroke-linecap="round"/>
<path d="M14.6683 19.0423L14.6443 13.9349" stroke="black" stroke-width="0.75" stroke-linecap="round"/>
<path d="M11.6742 13.9814L11.7057 19.0196" stroke="black" stroke-width="0.75" stroke-linecap="round"/>
</svg>
